%
M48
M72
T01C0.03150
T02C0.03906
T03C0.04000
T04C0.09000
T05C0.20000
T06C0.30000
T07C1.00000
%
T01
X333333Y60333
X343333Y60333
X353333Y60333
X363333Y60333
X478766Y85333
X490577Y85333
X498451Y85333
X506325Y85333
X514199Y85333
X543333Y85333
X543333Y145333
X514199Y145333
X506325Y145333
X498451Y145333
X490577Y145333
X478766Y145333
T02
X432708Y179708
X313958Y179708
X313958Y60958
X432708Y60958
T03
X501333Y49771
X511333Y49771
X521333Y49771
X539477Y109152
X539477Y119152
X217333Y119333
X217333Y109333
T04
X172333Y45333
X202333Y45333
X202333Y154333
X172333Y154333
X605333Y137333
X605333Y103333
T05
X605333Y65333
X604333Y183333
T06
X578333Y120833
X178333Y120833
T07
X373333Y119833
M30
