G75*
%MOIN*%
%OFA0B0*%
%FSLAX25Y25*%
%IPPOS*%
%LPD*%
%AMOC8*
5,1,8,0,0,1.08239X$1,22.5*
%
%ADD10C,0.01600*%
%ADD11C,0.00000*%
D10*
X0128333Y0033333D02*
X0128333Y0207333D01*
X0628333Y0207333D01*
X0628333Y0033333D01*
X0128333Y0033333D01*
D11*
X0167833Y0045333D02*
X0167835Y0045467D01*
X0167841Y0045601D01*
X0167851Y0045734D01*
X0167865Y0045868D01*
X0167883Y0046001D01*
X0167905Y0046133D01*
X0167930Y0046264D01*
X0167960Y0046395D01*
X0167994Y0046525D01*
X0168031Y0046653D01*
X0168072Y0046781D01*
X0168117Y0046907D01*
X0168166Y0047032D01*
X0168218Y0047155D01*
X0168274Y0047277D01*
X0168334Y0047397D01*
X0168397Y0047515D01*
X0168464Y0047631D01*
X0168534Y0047745D01*
X0168608Y0047857D01*
X0168685Y0047967D01*
X0168765Y0048075D01*
X0168848Y0048180D01*
X0168934Y0048282D01*
X0169023Y0048382D01*
X0169116Y0048479D01*
X0169211Y0048574D01*
X0169309Y0048665D01*
X0169409Y0048754D01*
X0169512Y0048839D01*
X0169618Y0048922D01*
X0169726Y0049001D01*
X0169836Y0049077D01*
X0169949Y0049150D01*
X0170064Y0049219D01*
X0170180Y0049285D01*
X0170299Y0049347D01*
X0170419Y0049406D01*
X0170542Y0049461D01*
X0170665Y0049513D01*
X0170790Y0049560D01*
X0170917Y0049604D01*
X0171045Y0049645D01*
X0171174Y0049681D01*
X0171304Y0049714D01*
X0171435Y0049742D01*
X0171566Y0049767D01*
X0171699Y0049788D01*
X0171832Y0049805D01*
X0171965Y0049818D01*
X0172099Y0049827D01*
X0172233Y0049832D01*
X0172367Y0049833D01*
X0172500Y0049830D01*
X0172634Y0049823D01*
X0172768Y0049812D01*
X0172901Y0049797D01*
X0173034Y0049778D01*
X0173166Y0049755D01*
X0173297Y0049729D01*
X0173427Y0049698D01*
X0173557Y0049663D01*
X0173685Y0049625D01*
X0173812Y0049583D01*
X0173938Y0049537D01*
X0174063Y0049487D01*
X0174186Y0049434D01*
X0174307Y0049377D01*
X0174427Y0049316D01*
X0174544Y0049252D01*
X0174660Y0049185D01*
X0174774Y0049114D01*
X0174885Y0049039D01*
X0174994Y0048962D01*
X0175101Y0048881D01*
X0175206Y0048797D01*
X0175307Y0048710D01*
X0175407Y0048620D01*
X0175503Y0048527D01*
X0175597Y0048431D01*
X0175688Y0048332D01*
X0175775Y0048231D01*
X0175860Y0048127D01*
X0175942Y0048021D01*
X0176020Y0047913D01*
X0176095Y0047802D01*
X0176167Y0047689D01*
X0176236Y0047573D01*
X0176301Y0047456D01*
X0176362Y0047337D01*
X0176420Y0047216D01*
X0176474Y0047094D01*
X0176525Y0046970D01*
X0176572Y0046844D01*
X0176615Y0046717D01*
X0176654Y0046589D01*
X0176690Y0046460D01*
X0176721Y0046330D01*
X0176749Y0046199D01*
X0176773Y0046067D01*
X0176793Y0045934D01*
X0176809Y0045801D01*
X0176821Y0045668D01*
X0176829Y0045534D01*
X0176833Y0045400D01*
X0176833Y0045266D01*
X0176829Y0045132D01*
X0176821Y0044998D01*
X0176809Y0044865D01*
X0176793Y0044732D01*
X0176773Y0044599D01*
X0176749Y0044467D01*
X0176721Y0044336D01*
X0176690Y0044206D01*
X0176654Y0044077D01*
X0176615Y0043949D01*
X0176572Y0043822D01*
X0176525Y0043696D01*
X0176474Y0043572D01*
X0176420Y0043450D01*
X0176362Y0043329D01*
X0176301Y0043210D01*
X0176236Y0043093D01*
X0176167Y0042977D01*
X0176095Y0042864D01*
X0176020Y0042753D01*
X0175942Y0042645D01*
X0175860Y0042539D01*
X0175775Y0042435D01*
X0175688Y0042334D01*
X0175597Y0042235D01*
X0175503Y0042139D01*
X0175407Y0042046D01*
X0175307Y0041956D01*
X0175206Y0041869D01*
X0175101Y0041785D01*
X0174994Y0041704D01*
X0174885Y0041627D01*
X0174774Y0041552D01*
X0174660Y0041481D01*
X0174544Y0041414D01*
X0174427Y0041350D01*
X0174307Y0041289D01*
X0174186Y0041232D01*
X0174063Y0041179D01*
X0173938Y0041129D01*
X0173812Y0041083D01*
X0173685Y0041041D01*
X0173557Y0041003D01*
X0173427Y0040968D01*
X0173297Y0040937D01*
X0173166Y0040911D01*
X0173034Y0040888D01*
X0172901Y0040869D01*
X0172768Y0040854D01*
X0172634Y0040843D01*
X0172500Y0040836D01*
X0172367Y0040833D01*
X0172233Y0040834D01*
X0172099Y0040839D01*
X0171965Y0040848D01*
X0171832Y0040861D01*
X0171699Y0040878D01*
X0171566Y0040899D01*
X0171435Y0040924D01*
X0171304Y0040952D01*
X0171174Y0040985D01*
X0171045Y0041021D01*
X0170917Y0041062D01*
X0170790Y0041106D01*
X0170665Y0041153D01*
X0170542Y0041205D01*
X0170419Y0041260D01*
X0170299Y0041319D01*
X0170180Y0041381D01*
X0170064Y0041447D01*
X0169949Y0041516D01*
X0169836Y0041589D01*
X0169726Y0041665D01*
X0169618Y0041744D01*
X0169512Y0041827D01*
X0169409Y0041912D01*
X0169309Y0042001D01*
X0169211Y0042092D01*
X0169116Y0042187D01*
X0169023Y0042284D01*
X0168934Y0042384D01*
X0168848Y0042486D01*
X0168765Y0042591D01*
X0168685Y0042699D01*
X0168608Y0042809D01*
X0168534Y0042921D01*
X0168464Y0043035D01*
X0168397Y0043151D01*
X0168334Y0043269D01*
X0168274Y0043389D01*
X0168218Y0043511D01*
X0168166Y0043634D01*
X0168117Y0043759D01*
X0168072Y0043885D01*
X0168031Y0044013D01*
X0167994Y0044141D01*
X0167960Y0044271D01*
X0167930Y0044402D01*
X0167905Y0044533D01*
X0167883Y0044665D01*
X0167865Y0044798D01*
X0167851Y0044932D01*
X0167841Y0045065D01*
X0167835Y0045199D01*
X0167833Y0045333D01*
X0197833Y0045333D02*
X0197835Y0045467D01*
X0197841Y0045601D01*
X0197851Y0045734D01*
X0197865Y0045868D01*
X0197883Y0046001D01*
X0197905Y0046133D01*
X0197930Y0046264D01*
X0197960Y0046395D01*
X0197994Y0046525D01*
X0198031Y0046653D01*
X0198072Y0046781D01*
X0198117Y0046907D01*
X0198166Y0047032D01*
X0198218Y0047155D01*
X0198274Y0047277D01*
X0198334Y0047397D01*
X0198397Y0047515D01*
X0198464Y0047631D01*
X0198534Y0047745D01*
X0198608Y0047857D01*
X0198685Y0047967D01*
X0198765Y0048075D01*
X0198848Y0048180D01*
X0198934Y0048282D01*
X0199023Y0048382D01*
X0199116Y0048479D01*
X0199211Y0048574D01*
X0199309Y0048665D01*
X0199409Y0048754D01*
X0199512Y0048839D01*
X0199618Y0048922D01*
X0199726Y0049001D01*
X0199836Y0049077D01*
X0199949Y0049150D01*
X0200064Y0049219D01*
X0200180Y0049285D01*
X0200299Y0049347D01*
X0200419Y0049406D01*
X0200542Y0049461D01*
X0200665Y0049513D01*
X0200790Y0049560D01*
X0200917Y0049604D01*
X0201045Y0049645D01*
X0201174Y0049681D01*
X0201304Y0049714D01*
X0201435Y0049742D01*
X0201566Y0049767D01*
X0201699Y0049788D01*
X0201832Y0049805D01*
X0201965Y0049818D01*
X0202099Y0049827D01*
X0202233Y0049832D01*
X0202367Y0049833D01*
X0202500Y0049830D01*
X0202634Y0049823D01*
X0202768Y0049812D01*
X0202901Y0049797D01*
X0203034Y0049778D01*
X0203166Y0049755D01*
X0203297Y0049729D01*
X0203427Y0049698D01*
X0203557Y0049663D01*
X0203685Y0049625D01*
X0203812Y0049583D01*
X0203938Y0049537D01*
X0204063Y0049487D01*
X0204186Y0049434D01*
X0204307Y0049377D01*
X0204427Y0049316D01*
X0204544Y0049252D01*
X0204660Y0049185D01*
X0204774Y0049114D01*
X0204885Y0049039D01*
X0204994Y0048962D01*
X0205101Y0048881D01*
X0205206Y0048797D01*
X0205307Y0048710D01*
X0205407Y0048620D01*
X0205503Y0048527D01*
X0205597Y0048431D01*
X0205688Y0048332D01*
X0205775Y0048231D01*
X0205860Y0048127D01*
X0205942Y0048021D01*
X0206020Y0047913D01*
X0206095Y0047802D01*
X0206167Y0047689D01*
X0206236Y0047573D01*
X0206301Y0047456D01*
X0206362Y0047337D01*
X0206420Y0047216D01*
X0206474Y0047094D01*
X0206525Y0046970D01*
X0206572Y0046844D01*
X0206615Y0046717D01*
X0206654Y0046589D01*
X0206690Y0046460D01*
X0206721Y0046330D01*
X0206749Y0046199D01*
X0206773Y0046067D01*
X0206793Y0045934D01*
X0206809Y0045801D01*
X0206821Y0045668D01*
X0206829Y0045534D01*
X0206833Y0045400D01*
X0206833Y0045266D01*
X0206829Y0045132D01*
X0206821Y0044998D01*
X0206809Y0044865D01*
X0206793Y0044732D01*
X0206773Y0044599D01*
X0206749Y0044467D01*
X0206721Y0044336D01*
X0206690Y0044206D01*
X0206654Y0044077D01*
X0206615Y0043949D01*
X0206572Y0043822D01*
X0206525Y0043696D01*
X0206474Y0043572D01*
X0206420Y0043450D01*
X0206362Y0043329D01*
X0206301Y0043210D01*
X0206236Y0043093D01*
X0206167Y0042977D01*
X0206095Y0042864D01*
X0206020Y0042753D01*
X0205942Y0042645D01*
X0205860Y0042539D01*
X0205775Y0042435D01*
X0205688Y0042334D01*
X0205597Y0042235D01*
X0205503Y0042139D01*
X0205407Y0042046D01*
X0205307Y0041956D01*
X0205206Y0041869D01*
X0205101Y0041785D01*
X0204994Y0041704D01*
X0204885Y0041627D01*
X0204774Y0041552D01*
X0204660Y0041481D01*
X0204544Y0041414D01*
X0204427Y0041350D01*
X0204307Y0041289D01*
X0204186Y0041232D01*
X0204063Y0041179D01*
X0203938Y0041129D01*
X0203812Y0041083D01*
X0203685Y0041041D01*
X0203557Y0041003D01*
X0203427Y0040968D01*
X0203297Y0040937D01*
X0203166Y0040911D01*
X0203034Y0040888D01*
X0202901Y0040869D01*
X0202768Y0040854D01*
X0202634Y0040843D01*
X0202500Y0040836D01*
X0202367Y0040833D01*
X0202233Y0040834D01*
X0202099Y0040839D01*
X0201965Y0040848D01*
X0201832Y0040861D01*
X0201699Y0040878D01*
X0201566Y0040899D01*
X0201435Y0040924D01*
X0201304Y0040952D01*
X0201174Y0040985D01*
X0201045Y0041021D01*
X0200917Y0041062D01*
X0200790Y0041106D01*
X0200665Y0041153D01*
X0200542Y0041205D01*
X0200419Y0041260D01*
X0200299Y0041319D01*
X0200180Y0041381D01*
X0200064Y0041447D01*
X0199949Y0041516D01*
X0199836Y0041589D01*
X0199726Y0041665D01*
X0199618Y0041744D01*
X0199512Y0041827D01*
X0199409Y0041912D01*
X0199309Y0042001D01*
X0199211Y0042092D01*
X0199116Y0042187D01*
X0199023Y0042284D01*
X0198934Y0042384D01*
X0198848Y0042486D01*
X0198765Y0042591D01*
X0198685Y0042699D01*
X0198608Y0042809D01*
X0198534Y0042921D01*
X0198464Y0043035D01*
X0198397Y0043151D01*
X0198334Y0043269D01*
X0198274Y0043389D01*
X0198218Y0043511D01*
X0198166Y0043634D01*
X0198117Y0043759D01*
X0198072Y0043885D01*
X0198031Y0044013D01*
X0197994Y0044141D01*
X0197960Y0044271D01*
X0197930Y0044402D01*
X0197905Y0044533D01*
X0197883Y0044665D01*
X0197865Y0044798D01*
X0197851Y0044932D01*
X0197841Y0045065D01*
X0197835Y0045199D01*
X0197833Y0045333D01*
X0312005Y0060958D02*
X0312007Y0061046D01*
X0312013Y0061134D01*
X0312023Y0061222D01*
X0312037Y0061309D01*
X0312055Y0061396D01*
X0312076Y0061481D01*
X0312102Y0061566D01*
X0312131Y0061649D01*
X0312164Y0061731D01*
X0312201Y0061811D01*
X0312241Y0061890D01*
X0312285Y0061966D01*
X0312333Y0062041D01*
X0312383Y0062113D01*
X0312437Y0062183D01*
X0312494Y0062251D01*
X0312554Y0062315D01*
X0312617Y0062377D01*
X0312682Y0062437D01*
X0312750Y0062493D01*
X0312821Y0062546D01*
X0312894Y0062596D01*
X0312969Y0062642D01*
X0313046Y0062685D01*
X0313125Y0062724D01*
X0313206Y0062760D01*
X0313288Y0062792D01*
X0313371Y0062821D01*
X0313456Y0062845D01*
X0313542Y0062866D01*
X0313629Y0062883D01*
X0313716Y0062896D01*
X0313804Y0062905D01*
X0313892Y0062910D01*
X0313980Y0062911D01*
X0314068Y0062908D01*
X0314156Y0062901D01*
X0314244Y0062890D01*
X0314331Y0062875D01*
X0314417Y0062856D01*
X0314502Y0062834D01*
X0314587Y0062807D01*
X0314670Y0062777D01*
X0314751Y0062743D01*
X0314831Y0062705D01*
X0314909Y0062664D01*
X0314985Y0062619D01*
X0315059Y0062571D01*
X0315131Y0062520D01*
X0315200Y0062465D01*
X0315267Y0062407D01*
X0315331Y0062347D01*
X0315393Y0062283D01*
X0315451Y0062217D01*
X0315506Y0062148D01*
X0315559Y0062077D01*
X0315607Y0062004D01*
X0315653Y0061928D01*
X0315695Y0061851D01*
X0315734Y0061771D01*
X0315769Y0061690D01*
X0315800Y0061607D01*
X0315827Y0061524D01*
X0315851Y0061439D01*
X0315871Y0061353D01*
X0315887Y0061266D01*
X0315899Y0061178D01*
X0315907Y0061090D01*
X0315911Y0061002D01*
X0315911Y0060914D01*
X0315907Y0060826D01*
X0315899Y0060738D01*
X0315887Y0060650D01*
X0315871Y0060563D01*
X0315851Y0060477D01*
X0315827Y0060392D01*
X0315800Y0060309D01*
X0315769Y0060226D01*
X0315734Y0060145D01*
X0315695Y0060065D01*
X0315653Y0059988D01*
X0315607Y0059912D01*
X0315559Y0059839D01*
X0315506Y0059768D01*
X0315451Y0059699D01*
X0315393Y0059633D01*
X0315331Y0059569D01*
X0315267Y0059509D01*
X0315200Y0059451D01*
X0315131Y0059396D01*
X0315059Y0059345D01*
X0314985Y0059297D01*
X0314909Y0059252D01*
X0314831Y0059211D01*
X0314751Y0059173D01*
X0314670Y0059139D01*
X0314587Y0059109D01*
X0314502Y0059082D01*
X0314417Y0059060D01*
X0314331Y0059041D01*
X0314244Y0059026D01*
X0314156Y0059015D01*
X0314068Y0059008D01*
X0313980Y0059005D01*
X0313892Y0059006D01*
X0313804Y0059011D01*
X0313716Y0059020D01*
X0313629Y0059033D01*
X0313542Y0059050D01*
X0313456Y0059071D01*
X0313371Y0059095D01*
X0313288Y0059124D01*
X0313206Y0059156D01*
X0313125Y0059192D01*
X0313046Y0059231D01*
X0312969Y0059274D01*
X0312894Y0059320D01*
X0312821Y0059370D01*
X0312750Y0059423D01*
X0312682Y0059479D01*
X0312617Y0059539D01*
X0312554Y0059601D01*
X0312494Y0059665D01*
X0312437Y0059733D01*
X0312383Y0059803D01*
X0312333Y0059875D01*
X0312285Y0059950D01*
X0312241Y0060026D01*
X0312201Y0060105D01*
X0312164Y0060185D01*
X0312131Y0060267D01*
X0312102Y0060350D01*
X0312076Y0060435D01*
X0312055Y0060520D01*
X0312037Y0060607D01*
X0312023Y0060694D01*
X0312013Y0060782D01*
X0312007Y0060870D01*
X0312005Y0060958D01*
X0430755Y0060958D02*
X0430757Y0061046D01*
X0430763Y0061134D01*
X0430773Y0061222D01*
X0430787Y0061309D01*
X0430805Y0061396D01*
X0430826Y0061481D01*
X0430852Y0061566D01*
X0430881Y0061649D01*
X0430914Y0061731D01*
X0430951Y0061811D01*
X0430991Y0061890D01*
X0431035Y0061966D01*
X0431083Y0062041D01*
X0431133Y0062113D01*
X0431187Y0062183D01*
X0431244Y0062251D01*
X0431304Y0062315D01*
X0431367Y0062377D01*
X0431432Y0062437D01*
X0431500Y0062493D01*
X0431571Y0062546D01*
X0431644Y0062596D01*
X0431719Y0062642D01*
X0431796Y0062685D01*
X0431875Y0062724D01*
X0431956Y0062760D01*
X0432038Y0062792D01*
X0432121Y0062821D01*
X0432206Y0062845D01*
X0432292Y0062866D01*
X0432379Y0062883D01*
X0432466Y0062896D01*
X0432554Y0062905D01*
X0432642Y0062910D01*
X0432730Y0062911D01*
X0432818Y0062908D01*
X0432906Y0062901D01*
X0432994Y0062890D01*
X0433081Y0062875D01*
X0433167Y0062856D01*
X0433252Y0062834D01*
X0433337Y0062807D01*
X0433420Y0062777D01*
X0433501Y0062743D01*
X0433581Y0062705D01*
X0433659Y0062664D01*
X0433735Y0062619D01*
X0433809Y0062571D01*
X0433881Y0062520D01*
X0433950Y0062465D01*
X0434017Y0062407D01*
X0434081Y0062347D01*
X0434143Y0062283D01*
X0434201Y0062217D01*
X0434256Y0062148D01*
X0434309Y0062077D01*
X0434357Y0062004D01*
X0434403Y0061928D01*
X0434445Y0061851D01*
X0434484Y0061771D01*
X0434519Y0061690D01*
X0434550Y0061607D01*
X0434577Y0061524D01*
X0434601Y0061439D01*
X0434621Y0061353D01*
X0434637Y0061266D01*
X0434649Y0061178D01*
X0434657Y0061090D01*
X0434661Y0061002D01*
X0434661Y0060914D01*
X0434657Y0060826D01*
X0434649Y0060738D01*
X0434637Y0060650D01*
X0434621Y0060563D01*
X0434601Y0060477D01*
X0434577Y0060392D01*
X0434550Y0060309D01*
X0434519Y0060226D01*
X0434484Y0060145D01*
X0434445Y0060065D01*
X0434403Y0059988D01*
X0434357Y0059912D01*
X0434309Y0059839D01*
X0434256Y0059768D01*
X0434201Y0059699D01*
X0434143Y0059633D01*
X0434081Y0059569D01*
X0434017Y0059509D01*
X0433950Y0059451D01*
X0433881Y0059396D01*
X0433809Y0059345D01*
X0433735Y0059297D01*
X0433659Y0059252D01*
X0433581Y0059211D01*
X0433501Y0059173D01*
X0433420Y0059139D01*
X0433337Y0059109D01*
X0433252Y0059082D01*
X0433167Y0059060D01*
X0433081Y0059041D01*
X0432994Y0059026D01*
X0432906Y0059015D01*
X0432818Y0059008D01*
X0432730Y0059005D01*
X0432642Y0059006D01*
X0432554Y0059011D01*
X0432466Y0059020D01*
X0432379Y0059033D01*
X0432292Y0059050D01*
X0432206Y0059071D01*
X0432121Y0059095D01*
X0432038Y0059124D01*
X0431956Y0059156D01*
X0431875Y0059192D01*
X0431796Y0059231D01*
X0431719Y0059274D01*
X0431644Y0059320D01*
X0431571Y0059370D01*
X0431500Y0059423D01*
X0431432Y0059479D01*
X0431367Y0059539D01*
X0431304Y0059601D01*
X0431244Y0059665D01*
X0431187Y0059733D01*
X0431133Y0059803D01*
X0431083Y0059875D01*
X0431035Y0059950D01*
X0430991Y0060026D01*
X0430951Y0060105D01*
X0430914Y0060185D01*
X0430881Y0060267D01*
X0430852Y0060350D01*
X0430826Y0060435D01*
X0430805Y0060520D01*
X0430787Y0060607D01*
X0430773Y0060694D01*
X0430763Y0060782D01*
X0430757Y0060870D01*
X0430755Y0060958D01*
X0595333Y0065333D02*
X0595336Y0065578D01*
X0595345Y0065824D01*
X0595360Y0066069D01*
X0595381Y0066313D01*
X0595408Y0066557D01*
X0595441Y0066800D01*
X0595480Y0067043D01*
X0595525Y0067284D01*
X0595576Y0067524D01*
X0595633Y0067763D01*
X0595695Y0068000D01*
X0595764Y0068236D01*
X0595838Y0068470D01*
X0595918Y0068702D01*
X0596003Y0068932D01*
X0596094Y0069160D01*
X0596191Y0069385D01*
X0596293Y0069609D01*
X0596401Y0069829D01*
X0596514Y0070047D01*
X0596632Y0070262D01*
X0596756Y0070474D01*
X0596884Y0070683D01*
X0597018Y0070889D01*
X0597157Y0071091D01*
X0597301Y0071290D01*
X0597450Y0071485D01*
X0597603Y0071677D01*
X0597761Y0071865D01*
X0597923Y0072049D01*
X0598091Y0072228D01*
X0598262Y0072404D01*
X0598438Y0072575D01*
X0598617Y0072743D01*
X0598801Y0072905D01*
X0598989Y0073063D01*
X0599181Y0073216D01*
X0599376Y0073365D01*
X0599575Y0073509D01*
X0599777Y0073648D01*
X0599983Y0073782D01*
X0600192Y0073910D01*
X0600404Y0074034D01*
X0600619Y0074152D01*
X0600837Y0074265D01*
X0601057Y0074373D01*
X0601281Y0074475D01*
X0601506Y0074572D01*
X0601734Y0074663D01*
X0601964Y0074748D01*
X0602196Y0074828D01*
X0602430Y0074902D01*
X0602666Y0074971D01*
X0602903Y0075033D01*
X0603142Y0075090D01*
X0603382Y0075141D01*
X0603623Y0075186D01*
X0603866Y0075225D01*
X0604109Y0075258D01*
X0604353Y0075285D01*
X0604597Y0075306D01*
X0604842Y0075321D01*
X0605088Y0075330D01*
X0605333Y0075333D01*
X0605578Y0075330D01*
X0605824Y0075321D01*
X0606069Y0075306D01*
X0606313Y0075285D01*
X0606557Y0075258D01*
X0606800Y0075225D01*
X0607043Y0075186D01*
X0607284Y0075141D01*
X0607524Y0075090D01*
X0607763Y0075033D01*
X0608000Y0074971D01*
X0608236Y0074902D01*
X0608470Y0074828D01*
X0608702Y0074748D01*
X0608932Y0074663D01*
X0609160Y0074572D01*
X0609385Y0074475D01*
X0609609Y0074373D01*
X0609829Y0074265D01*
X0610047Y0074152D01*
X0610262Y0074034D01*
X0610474Y0073910D01*
X0610683Y0073782D01*
X0610889Y0073648D01*
X0611091Y0073509D01*
X0611290Y0073365D01*
X0611485Y0073216D01*
X0611677Y0073063D01*
X0611865Y0072905D01*
X0612049Y0072743D01*
X0612228Y0072575D01*
X0612404Y0072404D01*
X0612575Y0072228D01*
X0612743Y0072049D01*
X0612905Y0071865D01*
X0613063Y0071677D01*
X0613216Y0071485D01*
X0613365Y0071290D01*
X0613509Y0071091D01*
X0613648Y0070889D01*
X0613782Y0070683D01*
X0613910Y0070474D01*
X0614034Y0070262D01*
X0614152Y0070047D01*
X0614265Y0069829D01*
X0614373Y0069609D01*
X0614475Y0069385D01*
X0614572Y0069160D01*
X0614663Y0068932D01*
X0614748Y0068702D01*
X0614828Y0068470D01*
X0614902Y0068236D01*
X0614971Y0068000D01*
X0615033Y0067763D01*
X0615090Y0067524D01*
X0615141Y0067284D01*
X0615186Y0067043D01*
X0615225Y0066800D01*
X0615258Y0066557D01*
X0615285Y0066313D01*
X0615306Y0066069D01*
X0615321Y0065824D01*
X0615330Y0065578D01*
X0615333Y0065333D01*
X0615330Y0065088D01*
X0615321Y0064842D01*
X0615306Y0064597D01*
X0615285Y0064353D01*
X0615258Y0064109D01*
X0615225Y0063866D01*
X0615186Y0063623D01*
X0615141Y0063382D01*
X0615090Y0063142D01*
X0615033Y0062903D01*
X0614971Y0062666D01*
X0614902Y0062430D01*
X0614828Y0062196D01*
X0614748Y0061964D01*
X0614663Y0061734D01*
X0614572Y0061506D01*
X0614475Y0061281D01*
X0614373Y0061057D01*
X0614265Y0060837D01*
X0614152Y0060619D01*
X0614034Y0060404D01*
X0613910Y0060192D01*
X0613782Y0059983D01*
X0613648Y0059777D01*
X0613509Y0059575D01*
X0613365Y0059376D01*
X0613216Y0059181D01*
X0613063Y0058989D01*
X0612905Y0058801D01*
X0612743Y0058617D01*
X0612575Y0058438D01*
X0612404Y0058262D01*
X0612228Y0058091D01*
X0612049Y0057923D01*
X0611865Y0057761D01*
X0611677Y0057603D01*
X0611485Y0057450D01*
X0611290Y0057301D01*
X0611091Y0057157D01*
X0610889Y0057018D01*
X0610683Y0056884D01*
X0610474Y0056756D01*
X0610262Y0056632D01*
X0610047Y0056514D01*
X0609829Y0056401D01*
X0609609Y0056293D01*
X0609385Y0056191D01*
X0609160Y0056094D01*
X0608932Y0056003D01*
X0608702Y0055918D01*
X0608470Y0055838D01*
X0608236Y0055764D01*
X0608000Y0055695D01*
X0607763Y0055633D01*
X0607524Y0055576D01*
X0607284Y0055525D01*
X0607043Y0055480D01*
X0606800Y0055441D01*
X0606557Y0055408D01*
X0606313Y0055381D01*
X0606069Y0055360D01*
X0605824Y0055345D01*
X0605578Y0055336D01*
X0605333Y0055333D01*
X0605088Y0055336D01*
X0604842Y0055345D01*
X0604597Y0055360D01*
X0604353Y0055381D01*
X0604109Y0055408D01*
X0603866Y0055441D01*
X0603623Y0055480D01*
X0603382Y0055525D01*
X0603142Y0055576D01*
X0602903Y0055633D01*
X0602666Y0055695D01*
X0602430Y0055764D01*
X0602196Y0055838D01*
X0601964Y0055918D01*
X0601734Y0056003D01*
X0601506Y0056094D01*
X0601281Y0056191D01*
X0601057Y0056293D01*
X0600837Y0056401D01*
X0600619Y0056514D01*
X0600404Y0056632D01*
X0600192Y0056756D01*
X0599983Y0056884D01*
X0599777Y0057018D01*
X0599575Y0057157D01*
X0599376Y0057301D01*
X0599181Y0057450D01*
X0598989Y0057603D01*
X0598801Y0057761D01*
X0598617Y0057923D01*
X0598438Y0058091D01*
X0598262Y0058262D01*
X0598091Y0058438D01*
X0597923Y0058617D01*
X0597761Y0058801D01*
X0597603Y0058989D01*
X0597450Y0059181D01*
X0597301Y0059376D01*
X0597157Y0059575D01*
X0597018Y0059777D01*
X0596884Y0059983D01*
X0596756Y0060192D01*
X0596632Y0060404D01*
X0596514Y0060619D01*
X0596401Y0060837D01*
X0596293Y0061057D01*
X0596191Y0061281D01*
X0596094Y0061506D01*
X0596003Y0061734D01*
X0595918Y0061964D01*
X0595838Y0062196D01*
X0595764Y0062430D01*
X0595695Y0062666D01*
X0595633Y0062903D01*
X0595576Y0063142D01*
X0595525Y0063382D01*
X0595480Y0063623D01*
X0595441Y0063866D01*
X0595408Y0064109D01*
X0595381Y0064353D01*
X0595360Y0064597D01*
X0595345Y0064842D01*
X0595336Y0065088D01*
X0595333Y0065333D01*
X0600833Y0103333D02*
X0600835Y0103467D01*
X0600841Y0103601D01*
X0600851Y0103734D01*
X0600865Y0103868D01*
X0600883Y0104001D01*
X0600905Y0104133D01*
X0600930Y0104264D01*
X0600960Y0104395D01*
X0600994Y0104525D01*
X0601031Y0104653D01*
X0601072Y0104781D01*
X0601117Y0104907D01*
X0601166Y0105032D01*
X0601218Y0105155D01*
X0601274Y0105277D01*
X0601334Y0105397D01*
X0601397Y0105515D01*
X0601464Y0105631D01*
X0601534Y0105745D01*
X0601608Y0105857D01*
X0601685Y0105967D01*
X0601765Y0106075D01*
X0601848Y0106180D01*
X0601934Y0106282D01*
X0602023Y0106382D01*
X0602116Y0106479D01*
X0602211Y0106574D01*
X0602309Y0106665D01*
X0602409Y0106754D01*
X0602512Y0106839D01*
X0602618Y0106922D01*
X0602726Y0107001D01*
X0602836Y0107077D01*
X0602949Y0107150D01*
X0603064Y0107219D01*
X0603180Y0107285D01*
X0603299Y0107347D01*
X0603419Y0107406D01*
X0603542Y0107461D01*
X0603665Y0107513D01*
X0603790Y0107560D01*
X0603917Y0107604D01*
X0604045Y0107645D01*
X0604174Y0107681D01*
X0604304Y0107714D01*
X0604435Y0107742D01*
X0604566Y0107767D01*
X0604699Y0107788D01*
X0604832Y0107805D01*
X0604965Y0107818D01*
X0605099Y0107827D01*
X0605233Y0107832D01*
X0605367Y0107833D01*
X0605500Y0107830D01*
X0605634Y0107823D01*
X0605768Y0107812D01*
X0605901Y0107797D01*
X0606034Y0107778D01*
X0606166Y0107755D01*
X0606297Y0107729D01*
X0606427Y0107698D01*
X0606557Y0107663D01*
X0606685Y0107625D01*
X0606812Y0107583D01*
X0606938Y0107537D01*
X0607063Y0107487D01*
X0607186Y0107434D01*
X0607307Y0107377D01*
X0607427Y0107316D01*
X0607544Y0107252D01*
X0607660Y0107185D01*
X0607774Y0107114D01*
X0607885Y0107039D01*
X0607994Y0106962D01*
X0608101Y0106881D01*
X0608206Y0106797D01*
X0608307Y0106710D01*
X0608407Y0106620D01*
X0608503Y0106527D01*
X0608597Y0106431D01*
X0608688Y0106332D01*
X0608775Y0106231D01*
X0608860Y0106127D01*
X0608942Y0106021D01*
X0609020Y0105913D01*
X0609095Y0105802D01*
X0609167Y0105689D01*
X0609236Y0105573D01*
X0609301Y0105456D01*
X0609362Y0105337D01*
X0609420Y0105216D01*
X0609474Y0105094D01*
X0609525Y0104970D01*
X0609572Y0104844D01*
X0609615Y0104717D01*
X0609654Y0104589D01*
X0609690Y0104460D01*
X0609721Y0104330D01*
X0609749Y0104199D01*
X0609773Y0104067D01*
X0609793Y0103934D01*
X0609809Y0103801D01*
X0609821Y0103668D01*
X0609829Y0103534D01*
X0609833Y0103400D01*
X0609833Y0103266D01*
X0609829Y0103132D01*
X0609821Y0102998D01*
X0609809Y0102865D01*
X0609793Y0102732D01*
X0609773Y0102599D01*
X0609749Y0102467D01*
X0609721Y0102336D01*
X0609690Y0102206D01*
X0609654Y0102077D01*
X0609615Y0101949D01*
X0609572Y0101822D01*
X0609525Y0101696D01*
X0609474Y0101572D01*
X0609420Y0101450D01*
X0609362Y0101329D01*
X0609301Y0101210D01*
X0609236Y0101093D01*
X0609167Y0100977D01*
X0609095Y0100864D01*
X0609020Y0100753D01*
X0608942Y0100645D01*
X0608860Y0100539D01*
X0608775Y0100435D01*
X0608688Y0100334D01*
X0608597Y0100235D01*
X0608503Y0100139D01*
X0608407Y0100046D01*
X0608307Y0099956D01*
X0608206Y0099869D01*
X0608101Y0099785D01*
X0607994Y0099704D01*
X0607885Y0099627D01*
X0607774Y0099552D01*
X0607660Y0099481D01*
X0607544Y0099414D01*
X0607427Y0099350D01*
X0607307Y0099289D01*
X0607186Y0099232D01*
X0607063Y0099179D01*
X0606938Y0099129D01*
X0606812Y0099083D01*
X0606685Y0099041D01*
X0606557Y0099003D01*
X0606427Y0098968D01*
X0606297Y0098937D01*
X0606166Y0098911D01*
X0606034Y0098888D01*
X0605901Y0098869D01*
X0605768Y0098854D01*
X0605634Y0098843D01*
X0605500Y0098836D01*
X0605367Y0098833D01*
X0605233Y0098834D01*
X0605099Y0098839D01*
X0604965Y0098848D01*
X0604832Y0098861D01*
X0604699Y0098878D01*
X0604566Y0098899D01*
X0604435Y0098924D01*
X0604304Y0098952D01*
X0604174Y0098985D01*
X0604045Y0099021D01*
X0603917Y0099062D01*
X0603790Y0099106D01*
X0603665Y0099153D01*
X0603542Y0099205D01*
X0603419Y0099260D01*
X0603299Y0099319D01*
X0603180Y0099381D01*
X0603064Y0099447D01*
X0602949Y0099516D01*
X0602836Y0099589D01*
X0602726Y0099665D01*
X0602618Y0099744D01*
X0602512Y0099827D01*
X0602409Y0099912D01*
X0602309Y0100001D01*
X0602211Y0100092D01*
X0602116Y0100187D01*
X0602023Y0100284D01*
X0601934Y0100384D01*
X0601848Y0100486D01*
X0601765Y0100591D01*
X0601685Y0100699D01*
X0601608Y0100809D01*
X0601534Y0100921D01*
X0601464Y0101035D01*
X0601397Y0101151D01*
X0601334Y0101269D01*
X0601274Y0101389D01*
X0601218Y0101511D01*
X0601166Y0101634D01*
X0601117Y0101759D01*
X0601072Y0101885D01*
X0601031Y0102013D01*
X0600994Y0102141D01*
X0600960Y0102271D01*
X0600930Y0102402D01*
X0600905Y0102533D01*
X0600883Y0102665D01*
X0600865Y0102798D01*
X0600851Y0102932D01*
X0600841Y0103065D01*
X0600835Y0103199D01*
X0600833Y0103333D01*
X0563333Y0120833D02*
X0563338Y0121201D01*
X0563351Y0121569D01*
X0563374Y0121936D01*
X0563405Y0122303D01*
X0563446Y0122669D01*
X0563495Y0123034D01*
X0563554Y0123397D01*
X0563621Y0123759D01*
X0563697Y0124120D01*
X0563783Y0124478D01*
X0563876Y0124834D01*
X0563979Y0125187D01*
X0564090Y0125538D01*
X0564210Y0125886D01*
X0564338Y0126231D01*
X0564475Y0126573D01*
X0564620Y0126912D01*
X0564773Y0127246D01*
X0564935Y0127577D01*
X0565104Y0127904D01*
X0565282Y0128226D01*
X0565467Y0128545D01*
X0565660Y0128858D01*
X0565861Y0129167D01*
X0566069Y0129470D01*
X0566285Y0129768D01*
X0566508Y0130061D01*
X0566738Y0130349D01*
X0566975Y0130631D01*
X0567219Y0130906D01*
X0567469Y0131176D01*
X0567726Y0131440D01*
X0567990Y0131697D01*
X0568260Y0131947D01*
X0568535Y0132191D01*
X0568817Y0132428D01*
X0569105Y0132658D01*
X0569398Y0132881D01*
X0569696Y0133097D01*
X0569999Y0133305D01*
X0570308Y0133506D01*
X0570621Y0133699D01*
X0570940Y0133884D01*
X0571262Y0134062D01*
X0571589Y0134231D01*
X0571920Y0134393D01*
X0572254Y0134546D01*
X0572593Y0134691D01*
X0572935Y0134828D01*
X0573280Y0134956D01*
X0573628Y0135076D01*
X0573979Y0135187D01*
X0574332Y0135290D01*
X0574688Y0135383D01*
X0575046Y0135469D01*
X0575407Y0135545D01*
X0575769Y0135612D01*
X0576132Y0135671D01*
X0576497Y0135720D01*
X0576863Y0135761D01*
X0577230Y0135792D01*
X0577597Y0135815D01*
X0577965Y0135828D01*
X0578333Y0135833D01*
X0578701Y0135828D01*
X0579069Y0135815D01*
X0579436Y0135792D01*
X0579803Y0135761D01*
X0580169Y0135720D01*
X0580534Y0135671D01*
X0580897Y0135612D01*
X0581259Y0135545D01*
X0581620Y0135469D01*
X0581978Y0135383D01*
X0582334Y0135290D01*
X0582687Y0135187D01*
X0583038Y0135076D01*
X0583386Y0134956D01*
X0583731Y0134828D01*
X0584073Y0134691D01*
X0584412Y0134546D01*
X0584746Y0134393D01*
X0585077Y0134231D01*
X0585404Y0134062D01*
X0585726Y0133884D01*
X0586045Y0133699D01*
X0586358Y0133506D01*
X0586667Y0133305D01*
X0586970Y0133097D01*
X0587268Y0132881D01*
X0587561Y0132658D01*
X0587849Y0132428D01*
X0588131Y0132191D01*
X0588406Y0131947D01*
X0588676Y0131697D01*
X0588940Y0131440D01*
X0589197Y0131176D01*
X0589447Y0130906D01*
X0589691Y0130631D01*
X0589928Y0130349D01*
X0590158Y0130061D01*
X0590381Y0129768D01*
X0590597Y0129470D01*
X0590805Y0129167D01*
X0591006Y0128858D01*
X0591199Y0128545D01*
X0591384Y0128226D01*
X0591562Y0127904D01*
X0591731Y0127577D01*
X0591893Y0127246D01*
X0592046Y0126912D01*
X0592191Y0126573D01*
X0592328Y0126231D01*
X0592456Y0125886D01*
X0592576Y0125538D01*
X0592687Y0125187D01*
X0592790Y0124834D01*
X0592883Y0124478D01*
X0592969Y0124120D01*
X0593045Y0123759D01*
X0593112Y0123397D01*
X0593171Y0123034D01*
X0593220Y0122669D01*
X0593261Y0122303D01*
X0593292Y0121936D01*
X0593315Y0121569D01*
X0593328Y0121201D01*
X0593333Y0120833D01*
X0593328Y0120465D01*
X0593315Y0120097D01*
X0593292Y0119730D01*
X0593261Y0119363D01*
X0593220Y0118997D01*
X0593171Y0118632D01*
X0593112Y0118269D01*
X0593045Y0117907D01*
X0592969Y0117546D01*
X0592883Y0117188D01*
X0592790Y0116832D01*
X0592687Y0116479D01*
X0592576Y0116128D01*
X0592456Y0115780D01*
X0592328Y0115435D01*
X0592191Y0115093D01*
X0592046Y0114754D01*
X0591893Y0114420D01*
X0591731Y0114089D01*
X0591562Y0113762D01*
X0591384Y0113440D01*
X0591199Y0113121D01*
X0591006Y0112808D01*
X0590805Y0112499D01*
X0590597Y0112196D01*
X0590381Y0111898D01*
X0590158Y0111605D01*
X0589928Y0111317D01*
X0589691Y0111035D01*
X0589447Y0110760D01*
X0589197Y0110490D01*
X0588940Y0110226D01*
X0588676Y0109969D01*
X0588406Y0109719D01*
X0588131Y0109475D01*
X0587849Y0109238D01*
X0587561Y0109008D01*
X0587268Y0108785D01*
X0586970Y0108569D01*
X0586667Y0108361D01*
X0586358Y0108160D01*
X0586045Y0107967D01*
X0585726Y0107782D01*
X0585404Y0107604D01*
X0585077Y0107435D01*
X0584746Y0107273D01*
X0584412Y0107120D01*
X0584073Y0106975D01*
X0583731Y0106838D01*
X0583386Y0106710D01*
X0583038Y0106590D01*
X0582687Y0106479D01*
X0582334Y0106376D01*
X0581978Y0106283D01*
X0581620Y0106197D01*
X0581259Y0106121D01*
X0580897Y0106054D01*
X0580534Y0105995D01*
X0580169Y0105946D01*
X0579803Y0105905D01*
X0579436Y0105874D01*
X0579069Y0105851D01*
X0578701Y0105838D01*
X0578333Y0105833D01*
X0577965Y0105838D01*
X0577597Y0105851D01*
X0577230Y0105874D01*
X0576863Y0105905D01*
X0576497Y0105946D01*
X0576132Y0105995D01*
X0575769Y0106054D01*
X0575407Y0106121D01*
X0575046Y0106197D01*
X0574688Y0106283D01*
X0574332Y0106376D01*
X0573979Y0106479D01*
X0573628Y0106590D01*
X0573280Y0106710D01*
X0572935Y0106838D01*
X0572593Y0106975D01*
X0572254Y0107120D01*
X0571920Y0107273D01*
X0571589Y0107435D01*
X0571262Y0107604D01*
X0570940Y0107782D01*
X0570621Y0107967D01*
X0570308Y0108160D01*
X0569999Y0108361D01*
X0569696Y0108569D01*
X0569398Y0108785D01*
X0569105Y0109008D01*
X0568817Y0109238D01*
X0568535Y0109475D01*
X0568260Y0109719D01*
X0567990Y0109969D01*
X0567726Y0110226D01*
X0567469Y0110490D01*
X0567219Y0110760D01*
X0566975Y0111035D01*
X0566738Y0111317D01*
X0566508Y0111605D01*
X0566285Y0111898D01*
X0566069Y0112196D01*
X0565861Y0112499D01*
X0565660Y0112808D01*
X0565467Y0113121D01*
X0565282Y0113440D01*
X0565104Y0113762D01*
X0564935Y0114089D01*
X0564773Y0114420D01*
X0564620Y0114754D01*
X0564475Y0115093D01*
X0564338Y0115435D01*
X0564210Y0115780D01*
X0564090Y0116128D01*
X0563979Y0116479D01*
X0563876Y0116832D01*
X0563783Y0117188D01*
X0563697Y0117546D01*
X0563621Y0117907D01*
X0563554Y0118269D01*
X0563495Y0118632D01*
X0563446Y0118997D01*
X0563405Y0119363D01*
X0563374Y0119730D01*
X0563351Y0120097D01*
X0563338Y0120465D01*
X0563333Y0120833D01*
X0600833Y0137333D02*
X0600835Y0137467D01*
X0600841Y0137601D01*
X0600851Y0137734D01*
X0600865Y0137868D01*
X0600883Y0138001D01*
X0600905Y0138133D01*
X0600930Y0138264D01*
X0600960Y0138395D01*
X0600994Y0138525D01*
X0601031Y0138653D01*
X0601072Y0138781D01*
X0601117Y0138907D01*
X0601166Y0139032D01*
X0601218Y0139155D01*
X0601274Y0139277D01*
X0601334Y0139397D01*
X0601397Y0139515D01*
X0601464Y0139631D01*
X0601534Y0139745D01*
X0601608Y0139857D01*
X0601685Y0139967D01*
X0601765Y0140075D01*
X0601848Y0140180D01*
X0601934Y0140282D01*
X0602023Y0140382D01*
X0602116Y0140479D01*
X0602211Y0140574D01*
X0602309Y0140665D01*
X0602409Y0140754D01*
X0602512Y0140839D01*
X0602618Y0140922D01*
X0602726Y0141001D01*
X0602836Y0141077D01*
X0602949Y0141150D01*
X0603064Y0141219D01*
X0603180Y0141285D01*
X0603299Y0141347D01*
X0603419Y0141406D01*
X0603542Y0141461D01*
X0603665Y0141513D01*
X0603790Y0141560D01*
X0603917Y0141604D01*
X0604045Y0141645D01*
X0604174Y0141681D01*
X0604304Y0141714D01*
X0604435Y0141742D01*
X0604566Y0141767D01*
X0604699Y0141788D01*
X0604832Y0141805D01*
X0604965Y0141818D01*
X0605099Y0141827D01*
X0605233Y0141832D01*
X0605367Y0141833D01*
X0605500Y0141830D01*
X0605634Y0141823D01*
X0605768Y0141812D01*
X0605901Y0141797D01*
X0606034Y0141778D01*
X0606166Y0141755D01*
X0606297Y0141729D01*
X0606427Y0141698D01*
X0606557Y0141663D01*
X0606685Y0141625D01*
X0606812Y0141583D01*
X0606938Y0141537D01*
X0607063Y0141487D01*
X0607186Y0141434D01*
X0607307Y0141377D01*
X0607427Y0141316D01*
X0607544Y0141252D01*
X0607660Y0141185D01*
X0607774Y0141114D01*
X0607885Y0141039D01*
X0607994Y0140962D01*
X0608101Y0140881D01*
X0608206Y0140797D01*
X0608307Y0140710D01*
X0608407Y0140620D01*
X0608503Y0140527D01*
X0608597Y0140431D01*
X0608688Y0140332D01*
X0608775Y0140231D01*
X0608860Y0140127D01*
X0608942Y0140021D01*
X0609020Y0139913D01*
X0609095Y0139802D01*
X0609167Y0139689D01*
X0609236Y0139573D01*
X0609301Y0139456D01*
X0609362Y0139337D01*
X0609420Y0139216D01*
X0609474Y0139094D01*
X0609525Y0138970D01*
X0609572Y0138844D01*
X0609615Y0138717D01*
X0609654Y0138589D01*
X0609690Y0138460D01*
X0609721Y0138330D01*
X0609749Y0138199D01*
X0609773Y0138067D01*
X0609793Y0137934D01*
X0609809Y0137801D01*
X0609821Y0137668D01*
X0609829Y0137534D01*
X0609833Y0137400D01*
X0609833Y0137266D01*
X0609829Y0137132D01*
X0609821Y0136998D01*
X0609809Y0136865D01*
X0609793Y0136732D01*
X0609773Y0136599D01*
X0609749Y0136467D01*
X0609721Y0136336D01*
X0609690Y0136206D01*
X0609654Y0136077D01*
X0609615Y0135949D01*
X0609572Y0135822D01*
X0609525Y0135696D01*
X0609474Y0135572D01*
X0609420Y0135450D01*
X0609362Y0135329D01*
X0609301Y0135210D01*
X0609236Y0135093D01*
X0609167Y0134977D01*
X0609095Y0134864D01*
X0609020Y0134753D01*
X0608942Y0134645D01*
X0608860Y0134539D01*
X0608775Y0134435D01*
X0608688Y0134334D01*
X0608597Y0134235D01*
X0608503Y0134139D01*
X0608407Y0134046D01*
X0608307Y0133956D01*
X0608206Y0133869D01*
X0608101Y0133785D01*
X0607994Y0133704D01*
X0607885Y0133627D01*
X0607774Y0133552D01*
X0607660Y0133481D01*
X0607544Y0133414D01*
X0607427Y0133350D01*
X0607307Y0133289D01*
X0607186Y0133232D01*
X0607063Y0133179D01*
X0606938Y0133129D01*
X0606812Y0133083D01*
X0606685Y0133041D01*
X0606557Y0133003D01*
X0606427Y0132968D01*
X0606297Y0132937D01*
X0606166Y0132911D01*
X0606034Y0132888D01*
X0605901Y0132869D01*
X0605768Y0132854D01*
X0605634Y0132843D01*
X0605500Y0132836D01*
X0605367Y0132833D01*
X0605233Y0132834D01*
X0605099Y0132839D01*
X0604965Y0132848D01*
X0604832Y0132861D01*
X0604699Y0132878D01*
X0604566Y0132899D01*
X0604435Y0132924D01*
X0604304Y0132952D01*
X0604174Y0132985D01*
X0604045Y0133021D01*
X0603917Y0133062D01*
X0603790Y0133106D01*
X0603665Y0133153D01*
X0603542Y0133205D01*
X0603419Y0133260D01*
X0603299Y0133319D01*
X0603180Y0133381D01*
X0603064Y0133447D01*
X0602949Y0133516D01*
X0602836Y0133589D01*
X0602726Y0133665D01*
X0602618Y0133744D01*
X0602512Y0133827D01*
X0602409Y0133912D01*
X0602309Y0134001D01*
X0602211Y0134092D01*
X0602116Y0134187D01*
X0602023Y0134284D01*
X0601934Y0134384D01*
X0601848Y0134486D01*
X0601765Y0134591D01*
X0601685Y0134699D01*
X0601608Y0134809D01*
X0601534Y0134921D01*
X0601464Y0135035D01*
X0601397Y0135151D01*
X0601334Y0135269D01*
X0601274Y0135389D01*
X0601218Y0135511D01*
X0601166Y0135634D01*
X0601117Y0135759D01*
X0601072Y0135885D01*
X0601031Y0136013D01*
X0600994Y0136141D01*
X0600960Y0136271D01*
X0600930Y0136402D01*
X0600905Y0136533D01*
X0600883Y0136665D01*
X0600865Y0136798D01*
X0600851Y0136932D01*
X0600841Y0137065D01*
X0600835Y0137199D01*
X0600833Y0137333D01*
X0594333Y0183333D02*
X0594336Y0183578D01*
X0594345Y0183824D01*
X0594360Y0184069D01*
X0594381Y0184313D01*
X0594408Y0184557D01*
X0594441Y0184800D01*
X0594480Y0185043D01*
X0594525Y0185284D01*
X0594576Y0185524D01*
X0594633Y0185763D01*
X0594695Y0186000D01*
X0594764Y0186236D01*
X0594838Y0186470D01*
X0594918Y0186702D01*
X0595003Y0186932D01*
X0595094Y0187160D01*
X0595191Y0187385D01*
X0595293Y0187609D01*
X0595401Y0187829D01*
X0595514Y0188047D01*
X0595632Y0188262D01*
X0595756Y0188474D01*
X0595884Y0188683D01*
X0596018Y0188889D01*
X0596157Y0189091D01*
X0596301Y0189290D01*
X0596450Y0189485D01*
X0596603Y0189677D01*
X0596761Y0189865D01*
X0596923Y0190049D01*
X0597091Y0190228D01*
X0597262Y0190404D01*
X0597438Y0190575D01*
X0597617Y0190743D01*
X0597801Y0190905D01*
X0597989Y0191063D01*
X0598181Y0191216D01*
X0598376Y0191365D01*
X0598575Y0191509D01*
X0598777Y0191648D01*
X0598983Y0191782D01*
X0599192Y0191910D01*
X0599404Y0192034D01*
X0599619Y0192152D01*
X0599837Y0192265D01*
X0600057Y0192373D01*
X0600281Y0192475D01*
X0600506Y0192572D01*
X0600734Y0192663D01*
X0600964Y0192748D01*
X0601196Y0192828D01*
X0601430Y0192902D01*
X0601666Y0192971D01*
X0601903Y0193033D01*
X0602142Y0193090D01*
X0602382Y0193141D01*
X0602623Y0193186D01*
X0602866Y0193225D01*
X0603109Y0193258D01*
X0603353Y0193285D01*
X0603597Y0193306D01*
X0603842Y0193321D01*
X0604088Y0193330D01*
X0604333Y0193333D01*
X0604578Y0193330D01*
X0604824Y0193321D01*
X0605069Y0193306D01*
X0605313Y0193285D01*
X0605557Y0193258D01*
X0605800Y0193225D01*
X0606043Y0193186D01*
X0606284Y0193141D01*
X0606524Y0193090D01*
X0606763Y0193033D01*
X0607000Y0192971D01*
X0607236Y0192902D01*
X0607470Y0192828D01*
X0607702Y0192748D01*
X0607932Y0192663D01*
X0608160Y0192572D01*
X0608385Y0192475D01*
X0608609Y0192373D01*
X0608829Y0192265D01*
X0609047Y0192152D01*
X0609262Y0192034D01*
X0609474Y0191910D01*
X0609683Y0191782D01*
X0609889Y0191648D01*
X0610091Y0191509D01*
X0610290Y0191365D01*
X0610485Y0191216D01*
X0610677Y0191063D01*
X0610865Y0190905D01*
X0611049Y0190743D01*
X0611228Y0190575D01*
X0611404Y0190404D01*
X0611575Y0190228D01*
X0611743Y0190049D01*
X0611905Y0189865D01*
X0612063Y0189677D01*
X0612216Y0189485D01*
X0612365Y0189290D01*
X0612509Y0189091D01*
X0612648Y0188889D01*
X0612782Y0188683D01*
X0612910Y0188474D01*
X0613034Y0188262D01*
X0613152Y0188047D01*
X0613265Y0187829D01*
X0613373Y0187609D01*
X0613475Y0187385D01*
X0613572Y0187160D01*
X0613663Y0186932D01*
X0613748Y0186702D01*
X0613828Y0186470D01*
X0613902Y0186236D01*
X0613971Y0186000D01*
X0614033Y0185763D01*
X0614090Y0185524D01*
X0614141Y0185284D01*
X0614186Y0185043D01*
X0614225Y0184800D01*
X0614258Y0184557D01*
X0614285Y0184313D01*
X0614306Y0184069D01*
X0614321Y0183824D01*
X0614330Y0183578D01*
X0614333Y0183333D01*
X0614330Y0183088D01*
X0614321Y0182842D01*
X0614306Y0182597D01*
X0614285Y0182353D01*
X0614258Y0182109D01*
X0614225Y0181866D01*
X0614186Y0181623D01*
X0614141Y0181382D01*
X0614090Y0181142D01*
X0614033Y0180903D01*
X0613971Y0180666D01*
X0613902Y0180430D01*
X0613828Y0180196D01*
X0613748Y0179964D01*
X0613663Y0179734D01*
X0613572Y0179506D01*
X0613475Y0179281D01*
X0613373Y0179057D01*
X0613265Y0178837D01*
X0613152Y0178619D01*
X0613034Y0178404D01*
X0612910Y0178192D01*
X0612782Y0177983D01*
X0612648Y0177777D01*
X0612509Y0177575D01*
X0612365Y0177376D01*
X0612216Y0177181D01*
X0612063Y0176989D01*
X0611905Y0176801D01*
X0611743Y0176617D01*
X0611575Y0176438D01*
X0611404Y0176262D01*
X0611228Y0176091D01*
X0611049Y0175923D01*
X0610865Y0175761D01*
X0610677Y0175603D01*
X0610485Y0175450D01*
X0610290Y0175301D01*
X0610091Y0175157D01*
X0609889Y0175018D01*
X0609683Y0174884D01*
X0609474Y0174756D01*
X0609262Y0174632D01*
X0609047Y0174514D01*
X0608829Y0174401D01*
X0608609Y0174293D01*
X0608385Y0174191D01*
X0608160Y0174094D01*
X0607932Y0174003D01*
X0607702Y0173918D01*
X0607470Y0173838D01*
X0607236Y0173764D01*
X0607000Y0173695D01*
X0606763Y0173633D01*
X0606524Y0173576D01*
X0606284Y0173525D01*
X0606043Y0173480D01*
X0605800Y0173441D01*
X0605557Y0173408D01*
X0605313Y0173381D01*
X0605069Y0173360D01*
X0604824Y0173345D01*
X0604578Y0173336D01*
X0604333Y0173333D01*
X0604088Y0173336D01*
X0603842Y0173345D01*
X0603597Y0173360D01*
X0603353Y0173381D01*
X0603109Y0173408D01*
X0602866Y0173441D01*
X0602623Y0173480D01*
X0602382Y0173525D01*
X0602142Y0173576D01*
X0601903Y0173633D01*
X0601666Y0173695D01*
X0601430Y0173764D01*
X0601196Y0173838D01*
X0600964Y0173918D01*
X0600734Y0174003D01*
X0600506Y0174094D01*
X0600281Y0174191D01*
X0600057Y0174293D01*
X0599837Y0174401D01*
X0599619Y0174514D01*
X0599404Y0174632D01*
X0599192Y0174756D01*
X0598983Y0174884D01*
X0598777Y0175018D01*
X0598575Y0175157D01*
X0598376Y0175301D01*
X0598181Y0175450D01*
X0597989Y0175603D01*
X0597801Y0175761D01*
X0597617Y0175923D01*
X0597438Y0176091D01*
X0597262Y0176262D01*
X0597091Y0176438D01*
X0596923Y0176617D01*
X0596761Y0176801D01*
X0596603Y0176989D01*
X0596450Y0177181D01*
X0596301Y0177376D01*
X0596157Y0177575D01*
X0596018Y0177777D01*
X0595884Y0177983D01*
X0595756Y0178192D01*
X0595632Y0178404D01*
X0595514Y0178619D01*
X0595401Y0178837D01*
X0595293Y0179057D01*
X0595191Y0179281D01*
X0595094Y0179506D01*
X0595003Y0179734D01*
X0594918Y0179964D01*
X0594838Y0180196D01*
X0594764Y0180430D01*
X0594695Y0180666D01*
X0594633Y0180903D01*
X0594576Y0181142D01*
X0594525Y0181382D01*
X0594480Y0181623D01*
X0594441Y0181866D01*
X0594408Y0182109D01*
X0594381Y0182353D01*
X0594360Y0182597D01*
X0594345Y0182842D01*
X0594336Y0183088D01*
X0594333Y0183333D01*
X0430755Y0179708D02*
X0430757Y0179796D01*
X0430763Y0179884D01*
X0430773Y0179972D01*
X0430787Y0180059D01*
X0430805Y0180146D01*
X0430826Y0180231D01*
X0430852Y0180316D01*
X0430881Y0180399D01*
X0430914Y0180481D01*
X0430951Y0180561D01*
X0430991Y0180640D01*
X0431035Y0180716D01*
X0431083Y0180791D01*
X0431133Y0180863D01*
X0431187Y0180933D01*
X0431244Y0181001D01*
X0431304Y0181065D01*
X0431367Y0181127D01*
X0431432Y0181187D01*
X0431500Y0181243D01*
X0431571Y0181296D01*
X0431644Y0181346D01*
X0431719Y0181392D01*
X0431796Y0181435D01*
X0431875Y0181474D01*
X0431956Y0181510D01*
X0432038Y0181542D01*
X0432121Y0181571D01*
X0432206Y0181595D01*
X0432292Y0181616D01*
X0432379Y0181633D01*
X0432466Y0181646D01*
X0432554Y0181655D01*
X0432642Y0181660D01*
X0432730Y0181661D01*
X0432818Y0181658D01*
X0432906Y0181651D01*
X0432994Y0181640D01*
X0433081Y0181625D01*
X0433167Y0181606D01*
X0433252Y0181584D01*
X0433337Y0181557D01*
X0433420Y0181527D01*
X0433501Y0181493D01*
X0433581Y0181455D01*
X0433659Y0181414D01*
X0433735Y0181369D01*
X0433809Y0181321D01*
X0433881Y0181270D01*
X0433950Y0181215D01*
X0434017Y0181157D01*
X0434081Y0181097D01*
X0434143Y0181033D01*
X0434201Y0180967D01*
X0434256Y0180898D01*
X0434309Y0180827D01*
X0434357Y0180754D01*
X0434403Y0180678D01*
X0434445Y0180601D01*
X0434484Y0180521D01*
X0434519Y0180440D01*
X0434550Y0180357D01*
X0434577Y0180274D01*
X0434601Y0180189D01*
X0434621Y0180103D01*
X0434637Y0180016D01*
X0434649Y0179928D01*
X0434657Y0179840D01*
X0434661Y0179752D01*
X0434661Y0179664D01*
X0434657Y0179576D01*
X0434649Y0179488D01*
X0434637Y0179400D01*
X0434621Y0179313D01*
X0434601Y0179227D01*
X0434577Y0179142D01*
X0434550Y0179059D01*
X0434519Y0178976D01*
X0434484Y0178895D01*
X0434445Y0178815D01*
X0434403Y0178738D01*
X0434357Y0178662D01*
X0434309Y0178589D01*
X0434256Y0178518D01*
X0434201Y0178449D01*
X0434143Y0178383D01*
X0434081Y0178319D01*
X0434017Y0178259D01*
X0433950Y0178201D01*
X0433881Y0178146D01*
X0433809Y0178095D01*
X0433735Y0178047D01*
X0433659Y0178002D01*
X0433581Y0177961D01*
X0433501Y0177923D01*
X0433420Y0177889D01*
X0433337Y0177859D01*
X0433252Y0177832D01*
X0433167Y0177810D01*
X0433081Y0177791D01*
X0432994Y0177776D01*
X0432906Y0177765D01*
X0432818Y0177758D01*
X0432730Y0177755D01*
X0432642Y0177756D01*
X0432554Y0177761D01*
X0432466Y0177770D01*
X0432379Y0177783D01*
X0432292Y0177800D01*
X0432206Y0177821D01*
X0432121Y0177845D01*
X0432038Y0177874D01*
X0431956Y0177906D01*
X0431875Y0177942D01*
X0431796Y0177981D01*
X0431719Y0178024D01*
X0431644Y0178070D01*
X0431571Y0178120D01*
X0431500Y0178173D01*
X0431432Y0178229D01*
X0431367Y0178289D01*
X0431304Y0178351D01*
X0431244Y0178415D01*
X0431187Y0178483D01*
X0431133Y0178553D01*
X0431083Y0178625D01*
X0431035Y0178700D01*
X0430991Y0178776D01*
X0430951Y0178855D01*
X0430914Y0178935D01*
X0430881Y0179017D01*
X0430852Y0179100D01*
X0430826Y0179185D01*
X0430805Y0179270D01*
X0430787Y0179357D01*
X0430773Y0179444D01*
X0430763Y0179532D01*
X0430757Y0179620D01*
X0430755Y0179708D01*
X0312005Y0179708D02*
X0312007Y0179796D01*
X0312013Y0179884D01*
X0312023Y0179972D01*
X0312037Y0180059D01*
X0312055Y0180146D01*
X0312076Y0180231D01*
X0312102Y0180316D01*
X0312131Y0180399D01*
X0312164Y0180481D01*
X0312201Y0180561D01*
X0312241Y0180640D01*
X0312285Y0180716D01*
X0312333Y0180791D01*
X0312383Y0180863D01*
X0312437Y0180933D01*
X0312494Y0181001D01*
X0312554Y0181065D01*
X0312617Y0181127D01*
X0312682Y0181187D01*
X0312750Y0181243D01*
X0312821Y0181296D01*
X0312894Y0181346D01*
X0312969Y0181392D01*
X0313046Y0181435D01*
X0313125Y0181474D01*
X0313206Y0181510D01*
X0313288Y0181542D01*
X0313371Y0181571D01*
X0313456Y0181595D01*
X0313542Y0181616D01*
X0313629Y0181633D01*
X0313716Y0181646D01*
X0313804Y0181655D01*
X0313892Y0181660D01*
X0313980Y0181661D01*
X0314068Y0181658D01*
X0314156Y0181651D01*
X0314244Y0181640D01*
X0314331Y0181625D01*
X0314417Y0181606D01*
X0314502Y0181584D01*
X0314587Y0181557D01*
X0314670Y0181527D01*
X0314751Y0181493D01*
X0314831Y0181455D01*
X0314909Y0181414D01*
X0314985Y0181369D01*
X0315059Y0181321D01*
X0315131Y0181270D01*
X0315200Y0181215D01*
X0315267Y0181157D01*
X0315331Y0181097D01*
X0315393Y0181033D01*
X0315451Y0180967D01*
X0315506Y0180898D01*
X0315559Y0180827D01*
X0315607Y0180754D01*
X0315653Y0180678D01*
X0315695Y0180601D01*
X0315734Y0180521D01*
X0315769Y0180440D01*
X0315800Y0180357D01*
X0315827Y0180274D01*
X0315851Y0180189D01*
X0315871Y0180103D01*
X0315887Y0180016D01*
X0315899Y0179928D01*
X0315907Y0179840D01*
X0315911Y0179752D01*
X0315911Y0179664D01*
X0315907Y0179576D01*
X0315899Y0179488D01*
X0315887Y0179400D01*
X0315871Y0179313D01*
X0315851Y0179227D01*
X0315827Y0179142D01*
X0315800Y0179059D01*
X0315769Y0178976D01*
X0315734Y0178895D01*
X0315695Y0178815D01*
X0315653Y0178738D01*
X0315607Y0178662D01*
X0315559Y0178589D01*
X0315506Y0178518D01*
X0315451Y0178449D01*
X0315393Y0178383D01*
X0315331Y0178319D01*
X0315267Y0178259D01*
X0315200Y0178201D01*
X0315131Y0178146D01*
X0315059Y0178095D01*
X0314985Y0178047D01*
X0314909Y0178002D01*
X0314831Y0177961D01*
X0314751Y0177923D01*
X0314670Y0177889D01*
X0314587Y0177859D01*
X0314502Y0177832D01*
X0314417Y0177810D01*
X0314331Y0177791D01*
X0314244Y0177776D01*
X0314156Y0177765D01*
X0314068Y0177758D01*
X0313980Y0177755D01*
X0313892Y0177756D01*
X0313804Y0177761D01*
X0313716Y0177770D01*
X0313629Y0177783D01*
X0313542Y0177800D01*
X0313456Y0177821D01*
X0313371Y0177845D01*
X0313288Y0177874D01*
X0313206Y0177906D01*
X0313125Y0177942D01*
X0313046Y0177981D01*
X0312969Y0178024D01*
X0312894Y0178070D01*
X0312821Y0178120D01*
X0312750Y0178173D01*
X0312682Y0178229D01*
X0312617Y0178289D01*
X0312554Y0178351D01*
X0312494Y0178415D01*
X0312437Y0178483D01*
X0312383Y0178553D01*
X0312333Y0178625D01*
X0312285Y0178700D01*
X0312241Y0178776D01*
X0312201Y0178855D01*
X0312164Y0178935D01*
X0312131Y0179017D01*
X0312102Y0179100D01*
X0312076Y0179185D01*
X0312055Y0179270D01*
X0312037Y0179357D01*
X0312023Y0179444D01*
X0312013Y0179532D01*
X0312007Y0179620D01*
X0312005Y0179708D01*
X0197833Y0154333D02*
X0197835Y0154467D01*
X0197841Y0154601D01*
X0197851Y0154734D01*
X0197865Y0154868D01*
X0197883Y0155001D01*
X0197905Y0155133D01*
X0197930Y0155264D01*
X0197960Y0155395D01*
X0197994Y0155525D01*
X0198031Y0155653D01*
X0198072Y0155781D01*
X0198117Y0155907D01*
X0198166Y0156032D01*
X0198218Y0156155D01*
X0198274Y0156277D01*
X0198334Y0156397D01*
X0198397Y0156515D01*
X0198464Y0156631D01*
X0198534Y0156745D01*
X0198608Y0156857D01*
X0198685Y0156967D01*
X0198765Y0157075D01*
X0198848Y0157180D01*
X0198934Y0157282D01*
X0199023Y0157382D01*
X0199116Y0157479D01*
X0199211Y0157574D01*
X0199309Y0157665D01*
X0199409Y0157754D01*
X0199512Y0157839D01*
X0199618Y0157922D01*
X0199726Y0158001D01*
X0199836Y0158077D01*
X0199949Y0158150D01*
X0200064Y0158219D01*
X0200180Y0158285D01*
X0200299Y0158347D01*
X0200419Y0158406D01*
X0200542Y0158461D01*
X0200665Y0158513D01*
X0200790Y0158560D01*
X0200917Y0158604D01*
X0201045Y0158645D01*
X0201174Y0158681D01*
X0201304Y0158714D01*
X0201435Y0158742D01*
X0201566Y0158767D01*
X0201699Y0158788D01*
X0201832Y0158805D01*
X0201965Y0158818D01*
X0202099Y0158827D01*
X0202233Y0158832D01*
X0202367Y0158833D01*
X0202500Y0158830D01*
X0202634Y0158823D01*
X0202768Y0158812D01*
X0202901Y0158797D01*
X0203034Y0158778D01*
X0203166Y0158755D01*
X0203297Y0158729D01*
X0203427Y0158698D01*
X0203557Y0158663D01*
X0203685Y0158625D01*
X0203812Y0158583D01*
X0203938Y0158537D01*
X0204063Y0158487D01*
X0204186Y0158434D01*
X0204307Y0158377D01*
X0204427Y0158316D01*
X0204544Y0158252D01*
X0204660Y0158185D01*
X0204774Y0158114D01*
X0204885Y0158039D01*
X0204994Y0157962D01*
X0205101Y0157881D01*
X0205206Y0157797D01*
X0205307Y0157710D01*
X0205407Y0157620D01*
X0205503Y0157527D01*
X0205597Y0157431D01*
X0205688Y0157332D01*
X0205775Y0157231D01*
X0205860Y0157127D01*
X0205942Y0157021D01*
X0206020Y0156913D01*
X0206095Y0156802D01*
X0206167Y0156689D01*
X0206236Y0156573D01*
X0206301Y0156456D01*
X0206362Y0156337D01*
X0206420Y0156216D01*
X0206474Y0156094D01*
X0206525Y0155970D01*
X0206572Y0155844D01*
X0206615Y0155717D01*
X0206654Y0155589D01*
X0206690Y0155460D01*
X0206721Y0155330D01*
X0206749Y0155199D01*
X0206773Y0155067D01*
X0206793Y0154934D01*
X0206809Y0154801D01*
X0206821Y0154668D01*
X0206829Y0154534D01*
X0206833Y0154400D01*
X0206833Y0154266D01*
X0206829Y0154132D01*
X0206821Y0153998D01*
X0206809Y0153865D01*
X0206793Y0153732D01*
X0206773Y0153599D01*
X0206749Y0153467D01*
X0206721Y0153336D01*
X0206690Y0153206D01*
X0206654Y0153077D01*
X0206615Y0152949D01*
X0206572Y0152822D01*
X0206525Y0152696D01*
X0206474Y0152572D01*
X0206420Y0152450D01*
X0206362Y0152329D01*
X0206301Y0152210D01*
X0206236Y0152093D01*
X0206167Y0151977D01*
X0206095Y0151864D01*
X0206020Y0151753D01*
X0205942Y0151645D01*
X0205860Y0151539D01*
X0205775Y0151435D01*
X0205688Y0151334D01*
X0205597Y0151235D01*
X0205503Y0151139D01*
X0205407Y0151046D01*
X0205307Y0150956D01*
X0205206Y0150869D01*
X0205101Y0150785D01*
X0204994Y0150704D01*
X0204885Y0150627D01*
X0204774Y0150552D01*
X0204660Y0150481D01*
X0204544Y0150414D01*
X0204427Y0150350D01*
X0204307Y0150289D01*
X0204186Y0150232D01*
X0204063Y0150179D01*
X0203938Y0150129D01*
X0203812Y0150083D01*
X0203685Y0150041D01*
X0203557Y0150003D01*
X0203427Y0149968D01*
X0203297Y0149937D01*
X0203166Y0149911D01*
X0203034Y0149888D01*
X0202901Y0149869D01*
X0202768Y0149854D01*
X0202634Y0149843D01*
X0202500Y0149836D01*
X0202367Y0149833D01*
X0202233Y0149834D01*
X0202099Y0149839D01*
X0201965Y0149848D01*
X0201832Y0149861D01*
X0201699Y0149878D01*
X0201566Y0149899D01*
X0201435Y0149924D01*
X0201304Y0149952D01*
X0201174Y0149985D01*
X0201045Y0150021D01*
X0200917Y0150062D01*
X0200790Y0150106D01*
X0200665Y0150153D01*
X0200542Y0150205D01*
X0200419Y0150260D01*
X0200299Y0150319D01*
X0200180Y0150381D01*
X0200064Y0150447D01*
X0199949Y0150516D01*
X0199836Y0150589D01*
X0199726Y0150665D01*
X0199618Y0150744D01*
X0199512Y0150827D01*
X0199409Y0150912D01*
X0199309Y0151001D01*
X0199211Y0151092D01*
X0199116Y0151187D01*
X0199023Y0151284D01*
X0198934Y0151384D01*
X0198848Y0151486D01*
X0198765Y0151591D01*
X0198685Y0151699D01*
X0198608Y0151809D01*
X0198534Y0151921D01*
X0198464Y0152035D01*
X0198397Y0152151D01*
X0198334Y0152269D01*
X0198274Y0152389D01*
X0198218Y0152511D01*
X0198166Y0152634D01*
X0198117Y0152759D01*
X0198072Y0152885D01*
X0198031Y0153013D01*
X0197994Y0153141D01*
X0197960Y0153271D01*
X0197930Y0153402D01*
X0197905Y0153533D01*
X0197883Y0153665D01*
X0197865Y0153798D01*
X0197851Y0153932D01*
X0197841Y0154065D01*
X0197835Y0154199D01*
X0197833Y0154333D01*
X0167833Y0154333D02*
X0167835Y0154467D01*
X0167841Y0154601D01*
X0167851Y0154734D01*
X0167865Y0154868D01*
X0167883Y0155001D01*
X0167905Y0155133D01*
X0167930Y0155264D01*
X0167960Y0155395D01*
X0167994Y0155525D01*
X0168031Y0155653D01*
X0168072Y0155781D01*
X0168117Y0155907D01*
X0168166Y0156032D01*
X0168218Y0156155D01*
X0168274Y0156277D01*
X0168334Y0156397D01*
X0168397Y0156515D01*
X0168464Y0156631D01*
X0168534Y0156745D01*
X0168608Y0156857D01*
X0168685Y0156967D01*
X0168765Y0157075D01*
X0168848Y0157180D01*
X0168934Y0157282D01*
X0169023Y0157382D01*
X0169116Y0157479D01*
X0169211Y0157574D01*
X0169309Y0157665D01*
X0169409Y0157754D01*
X0169512Y0157839D01*
X0169618Y0157922D01*
X0169726Y0158001D01*
X0169836Y0158077D01*
X0169949Y0158150D01*
X0170064Y0158219D01*
X0170180Y0158285D01*
X0170299Y0158347D01*
X0170419Y0158406D01*
X0170542Y0158461D01*
X0170665Y0158513D01*
X0170790Y0158560D01*
X0170917Y0158604D01*
X0171045Y0158645D01*
X0171174Y0158681D01*
X0171304Y0158714D01*
X0171435Y0158742D01*
X0171566Y0158767D01*
X0171699Y0158788D01*
X0171832Y0158805D01*
X0171965Y0158818D01*
X0172099Y0158827D01*
X0172233Y0158832D01*
X0172367Y0158833D01*
X0172500Y0158830D01*
X0172634Y0158823D01*
X0172768Y0158812D01*
X0172901Y0158797D01*
X0173034Y0158778D01*
X0173166Y0158755D01*
X0173297Y0158729D01*
X0173427Y0158698D01*
X0173557Y0158663D01*
X0173685Y0158625D01*
X0173812Y0158583D01*
X0173938Y0158537D01*
X0174063Y0158487D01*
X0174186Y0158434D01*
X0174307Y0158377D01*
X0174427Y0158316D01*
X0174544Y0158252D01*
X0174660Y0158185D01*
X0174774Y0158114D01*
X0174885Y0158039D01*
X0174994Y0157962D01*
X0175101Y0157881D01*
X0175206Y0157797D01*
X0175307Y0157710D01*
X0175407Y0157620D01*
X0175503Y0157527D01*
X0175597Y0157431D01*
X0175688Y0157332D01*
X0175775Y0157231D01*
X0175860Y0157127D01*
X0175942Y0157021D01*
X0176020Y0156913D01*
X0176095Y0156802D01*
X0176167Y0156689D01*
X0176236Y0156573D01*
X0176301Y0156456D01*
X0176362Y0156337D01*
X0176420Y0156216D01*
X0176474Y0156094D01*
X0176525Y0155970D01*
X0176572Y0155844D01*
X0176615Y0155717D01*
X0176654Y0155589D01*
X0176690Y0155460D01*
X0176721Y0155330D01*
X0176749Y0155199D01*
X0176773Y0155067D01*
X0176793Y0154934D01*
X0176809Y0154801D01*
X0176821Y0154668D01*
X0176829Y0154534D01*
X0176833Y0154400D01*
X0176833Y0154266D01*
X0176829Y0154132D01*
X0176821Y0153998D01*
X0176809Y0153865D01*
X0176793Y0153732D01*
X0176773Y0153599D01*
X0176749Y0153467D01*
X0176721Y0153336D01*
X0176690Y0153206D01*
X0176654Y0153077D01*
X0176615Y0152949D01*
X0176572Y0152822D01*
X0176525Y0152696D01*
X0176474Y0152572D01*
X0176420Y0152450D01*
X0176362Y0152329D01*
X0176301Y0152210D01*
X0176236Y0152093D01*
X0176167Y0151977D01*
X0176095Y0151864D01*
X0176020Y0151753D01*
X0175942Y0151645D01*
X0175860Y0151539D01*
X0175775Y0151435D01*
X0175688Y0151334D01*
X0175597Y0151235D01*
X0175503Y0151139D01*
X0175407Y0151046D01*
X0175307Y0150956D01*
X0175206Y0150869D01*
X0175101Y0150785D01*
X0174994Y0150704D01*
X0174885Y0150627D01*
X0174774Y0150552D01*
X0174660Y0150481D01*
X0174544Y0150414D01*
X0174427Y0150350D01*
X0174307Y0150289D01*
X0174186Y0150232D01*
X0174063Y0150179D01*
X0173938Y0150129D01*
X0173812Y0150083D01*
X0173685Y0150041D01*
X0173557Y0150003D01*
X0173427Y0149968D01*
X0173297Y0149937D01*
X0173166Y0149911D01*
X0173034Y0149888D01*
X0172901Y0149869D01*
X0172768Y0149854D01*
X0172634Y0149843D01*
X0172500Y0149836D01*
X0172367Y0149833D01*
X0172233Y0149834D01*
X0172099Y0149839D01*
X0171965Y0149848D01*
X0171832Y0149861D01*
X0171699Y0149878D01*
X0171566Y0149899D01*
X0171435Y0149924D01*
X0171304Y0149952D01*
X0171174Y0149985D01*
X0171045Y0150021D01*
X0170917Y0150062D01*
X0170790Y0150106D01*
X0170665Y0150153D01*
X0170542Y0150205D01*
X0170419Y0150260D01*
X0170299Y0150319D01*
X0170180Y0150381D01*
X0170064Y0150447D01*
X0169949Y0150516D01*
X0169836Y0150589D01*
X0169726Y0150665D01*
X0169618Y0150744D01*
X0169512Y0150827D01*
X0169409Y0150912D01*
X0169309Y0151001D01*
X0169211Y0151092D01*
X0169116Y0151187D01*
X0169023Y0151284D01*
X0168934Y0151384D01*
X0168848Y0151486D01*
X0168765Y0151591D01*
X0168685Y0151699D01*
X0168608Y0151809D01*
X0168534Y0151921D01*
X0168464Y0152035D01*
X0168397Y0152151D01*
X0168334Y0152269D01*
X0168274Y0152389D01*
X0168218Y0152511D01*
X0168166Y0152634D01*
X0168117Y0152759D01*
X0168072Y0152885D01*
X0168031Y0153013D01*
X0167994Y0153141D01*
X0167960Y0153271D01*
X0167930Y0153402D01*
X0167905Y0153533D01*
X0167883Y0153665D01*
X0167865Y0153798D01*
X0167851Y0153932D01*
X0167841Y0154065D01*
X0167835Y0154199D01*
X0167833Y0154333D01*
X0163333Y0120833D02*
X0163338Y0121201D01*
X0163351Y0121569D01*
X0163374Y0121936D01*
X0163405Y0122303D01*
X0163446Y0122669D01*
X0163495Y0123034D01*
X0163554Y0123397D01*
X0163621Y0123759D01*
X0163697Y0124120D01*
X0163783Y0124478D01*
X0163876Y0124834D01*
X0163979Y0125187D01*
X0164090Y0125538D01*
X0164210Y0125886D01*
X0164338Y0126231D01*
X0164475Y0126573D01*
X0164620Y0126912D01*
X0164773Y0127246D01*
X0164935Y0127577D01*
X0165104Y0127904D01*
X0165282Y0128226D01*
X0165467Y0128545D01*
X0165660Y0128858D01*
X0165861Y0129167D01*
X0166069Y0129470D01*
X0166285Y0129768D01*
X0166508Y0130061D01*
X0166738Y0130349D01*
X0166975Y0130631D01*
X0167219Y0130906D01*
X0167469Y0131176D01*
X0167726Y0131440D01*
X0167990Y0131697D01*
X0168260Y0131947D01*
X0168535Y0132191D01*
X0168817Y0132428D01*
X0169105Y0132658D01*
X0169398Y0132881D01*
X0169696Y0133097D01*
X0169999Y0133305D01*
X0170308Y0133506D01*
X0170621Y0133699D01*
X0170940Y0133884D01*
X0171262Y0134062D01*
X0171589Y0134231D01*
X0171920Y0134393D01*
X0172254Y0134546D01*
X0172593Y0134691D01*
X0172935Y0134828D01*
X0173280Y0134956D01*
X0173628Y0135076D01*
X0173979Y0135187D01*
X0174332Y0135290D01*
X0174688Y0135383D01*
X0175046Y0135469D01*
X0175407Y0135545D01*
X0175769Y0135612D01*
X0176132Y0135671D01*
X0176497Y0135720D01*
X0176863Y0135761D01*
X0177230Y0135792D01*
X0177597Y0135815D01*
X0177965Y0135828D01*
X0178333Y0135833D01*
X0178701Y0135828D01*
X0179069Y0135815D01*
X0179436Y0135792D01*
X0179803Y0135761D01*
X0180169Y0135720D01*
X0180534Y0135671D01*
X0180897Y0135612D01*
X0181259Y0135545D01*
X0181620Y0135469D01*
X0181978Y0135383D01*
X0182334Y0135290D01*
X0182687Y0135187D01*
X0183038Y0135076D01*
X0183386Y0134956D01*
X0183731Y0134828D01*
X0184073Y0134691D01*
X0184412Y0134546D01*
X0184746Y0134393D01*
X0185077Y0134231D01*
X0185404Y0134062D01*
X0185726Y0133884D01*
X0186045Y0133699D01*
X0186358Y0133506D01*
X0186667Y0133305D01*
X0186970Y0133097D01*
X0187268Y0132881D01*
X0187561Y0132658D01*
X0187849Y0132428D01*
X0188131Y0132191D01*
X0188406Y0131947D01*
X0188676Y0131697D01*
X0188940Y0131440D01*
X0189197Y0131176D01*
X0189447Y0130906D01*
X0189691Y0130631D01*
X0189928Y0130349D01*
X0190158Y0130061D01*
X0190381Y0129768D01*
X0190597Y0129470D01*
X0190805Y0129167D01*
X0191006Y0128858D01*
X0191199Y0128545D01*
X0191384Y0128226D01*
X0191562Y0127904D01*
X0191731Y0127577D01*
X0191893Y0127246D01*
X0192046Y0126912D01*
X0192191Y0126573D01*
X0192328Y0126231D01*
X0192456Y0125886D01*
X0192576Y0125538D01*
X0192687Y0125187D01*
X0192790Y0124834D01*
X0192883Y0124478D01*
X0192969Y0124120D01*
X0193045Y0123759D01*
X0193112Y0123397D01*
X0193171Y0123034D01*
X0193220Y0122669D01*
X0193261Y0122303D01*
X0193292Y0121936D01*
X0193315Y0121569D01*
X0193328Y0121201D01*
X0193333Y0120833D01*
X0193328Y0120465D01*
X0193315Y0120097D01*
X0193292Y0119730D01*
X0193261Y0119363D01*
X0193220Y0118997D01*
X0193171Y0118632D01*
X0193112Y0118269D01*
X0193045Y0117907D01*
X0192969Y0117546D01*
X0192883Y0117188D01*
X0192790Y0116832D01*
X0192687Y0116479D01*
X0192576Y0116128D01*
X0192456Y0115780D01*
X0192328Y0115435D01*
X0192191Y0115093D01*
X0192046Y0114754D01*
X0191893Y0114420D01*
X0191731Y0114089D01*
X0191562Y0113762D01*
X0191384Y0113440D01*
X0191199Y0113121D01*
X0191006Y0112808D01*
X0190805Y0112499D01*
X0190597Y0112196D01*
X0190381Y0111898D01*
X0190158Y0111605D01*
X0189928Y0111317D01*
X0189691Y0111035D01*
X0189447Y0110760D01*
X0189197Y0110490D01*
X0188940Y0110226D01*
X0188676Y0109969D01*
X0188406Y0109719D01*
X0188131Y0109475D01*
X0187849Y0109238D01*
X0187561Y0109008D01*
X0187268Y0108785D01*
X0186970Y0108569D01*
X0186667Y0108361D01*
X0186358Y0108160D01*
X0186045Y0107967D01*
X0185726Y0107782D01*
X0185404Y0107604D01*
X0185077Y0107435D01*
X0184746Y0107273D01*
X0184412Y0107120D01*
X0184073Y0106975D01*
X0183731Y0106838D01*
X0183386Y0106710D01*
X0183038Y0106590D01*
X0182687Y0106479D01*
X0182334Y0106376D01*
X0181978Y0106283D01*
X0181620Y0106197D01*
X0181259Y0106121D01*
X0180897Y0106054D01*
X0180534Y0105995D01*
X0180169Y0105946D01*
X0179803Y0105905D01*
X0179436Y0105874D01*
X0179069Y0105851D01*
X0178701Y0105838D01*
X0178333Y0105833D01*
X0177965Y0105838D01*
X0177597Y0105851D01*
X0177230Y0105874D01*
X0176863Y0105905D01*
X0176497Y0105946D01*
X0176132Y0105995D01*
X0175769Y0106054D01*
X0175407Y0106121D01*
X0175046Y0106197D01*
X0174688Y0106283D01*
X0174332Y0106376D01*
X0173979Y0106479D01*
X0173628Y0106590D01*
X0173280Y0106710D01*
X0172935Y0106838D01*
X0172593Y0106975D01*
X0172254Y0107120D01*
X0171920Y0107273D01*
X0171589Y0107435D01*
X0171262Y0107604D01*
X0170940Y0107782D01*
X0170621Y0107967D01*
X0170308Y0108160D01*
X0169999Y0108361D01*
X0169696Y0108569D01*
X0169398Y0108785D01*
X0169105Y0109008D01*
X0168817Y0109238D01*
X0168535Y0109475D01*
X0168260Y0109719D01*
X0167990Y0109969D01*
X0167726Y0110226D01*
X0167469Y0110490D01*
X0167219Y0110760D01*
X0166975Y0111035D01*
X0166738Y0111317D01*
X0166508Y0111605D01*
X0166285Y0111898D01*
X0166069Y0112196D01*
X0165861Y0112499D01*
X0165660Y0112808D01*
X0165467Y0113121D01*
X0165282Y0113440D01*
X0165104Y0113762D01*
X0164935Y0114089D01*
X0164773Y0114420D01*
X0164620Y0114754D01*
X0164475Y0115093D01*
X0164338Y0115435D01*
X0164210Y0115780D01*
X0164090Y0116128D01*
X0163979Y0116479D01*
X0163876Y0116832D01*
X0163783Y0117188D01*
X0163697Y0117546D01*
X0163621Y0117907D01*
X0163554Y0118269D01*
X0163495Y0118632D01*
X0163446Y0118997D01*
X0163405Y0119363D01*
X0163374Y0119730D01*
X0163351Y0120097D01*
X0163338Y0120465D01*
X0163333Y0120833D01*
X0323333Y0119833D02*
X0323348Y0121060D01*
X0323393Y0122286D01*
X0323468Y0123511D01*
X0323574Y0124734D01*
X0323709Y0125954D01*
X0323874Y0127170D01*
X0324069Y0128381D01*
X0324294Y0129588D01*
X0324548Y0130788D01*
X0324831Y0131982D01*
X0325144Y0133169D01*
X0325486Y0134347D01*
X0325857Y0135517D01*
X0326256Y0136677D01*
X0326683Y0137828D01*
X0327139Y0138967D01*
X0327623Y0140095D01*
X0328134Y0141211D01*
X0328672Y0142314D01*
X0329237Y0143403D01*
X0329829Y0144478D01*
X0330447Y0145538D01*
X0331090Y0146583D01*
X0331760Y0147612D01*
X0332454Y0148623D01*
X0333173Y0149618D01*
X0333916Y0150595D01*
X0334682Y0151553D01*
X0335473Y0152492D01*
X0336285Y0153411D01*
X0337121Y0154310D01*
X0337978Y0155188D01*
X0338856Y0156045D01*
X0339755Y0156881D01*
X0340674Y0157693D01*
X0341613Y0158484D01*
X0342571Y0159250D01*
X0343548Y0159993D01*
X0344543Y0160712D01*
X0345554Y0161406D01*
X0346583Y0162076D01*
X0347628Y0162719D01*
X0348688Y0163337D01*
X0349763Y0163929D01*
X0350852Y0164494D01*
X0351955Y0165032D01*
X0353071Y0165543D01*
X0354199Y0166027D01*
X0355338Y0166483D01*
X0356489Y0166910D01*
X0357649Y0167309D01*
X0358819Y0167680D01*
X0359997Y0168022D01*
X0361184Y0168335D01*
X0362378Y0168618D01*
X0363578Y0168872D01*
X0364785Y0169097D01*
X0365996Y0169292D01*
X0367212Y0169457D01*
X0368432Y0169592D01*
X0369655Y0169698D01*
X0370880Y0169773D01*
X0372106Y0169818D01*
X0373333Y0169833D01*
X0374560Y0169818D01*
X0375786Y0169773D01*
X0377011Y0169698D01*
X0378234Y0169592D01*
X0379454Y0169457D01*
X0380670Y0169292D01*
X0381881Y0169097D01*
X0383088Y0168872D01*
X0384288Y0168618D01*
X0385482Y0168335D01*
X0386669Y0168022D01*
X0387847Y0167680D01*
X0389017Y0167309D01*
X0390177Y0166910D01*
X0391328Y0166483D01*
X0392467Y0166027D01*
X0393595Y0165543D01*
X0394711Y0165032D01*
X0395814Y0164494D01*
X0396903Y0163929D01*
X0397978Y0163337D01*
X0399038Y0162719D01*
X0400083Y0162076D01*
X0401112Y0161406D01*
X0402123Y0160712D01*
X0403118Y0159993D01*
X0404095Y0159250D01*
X0405053Y0158484D01*
X0405992Y0157693D01*
X0406911Y0156881D01*
X0407810Y0156045D01*
X0408688Y0155188D01*
X0409545Y0154310D01*
X0410381Y0153411D01*
X0411193Y0152492D01*
X0411984Y0151553D01*
X0412750Y0150595D01*
X0413493Y0149618D01*
X0414212Y0148623D01*
X0414906Y0147612D01*
X0415576Y0146583D01*
X0416219Y0145538D01*
X0416837Y0144478D01*
X0417429Y0143403D01*
X0417994Y0142314D01*
X0418532Y0141211D01*
X0419043Y0140095D01*
X0419527Y0138967D01*
X0419983Y0137828D01*
X0420410Y0136677D01*
X0420809Y0135517D01*
X0421180Y0134347D01*
X0421522Y0133169D01*
X0421835Y0131982D01*
X0422118Y0130788D01*
X0422372Y0129588D01*
X0422597Y0128381D01*
X0422792Y0127170D01*
X0422957Y0125954D01*
X0423092Y0124734D01*
X0423198Y0123511D01*
X0423273Y0122286D01*
X0423318Y0121060D01*
X0423333Y0119833D01*
X0423318Y0118606D01*
X0423273Y0117380D01*
X0423198Y0116155D01*
X0423092Y0114932D01*
X0422957Y0113712D01*
X0422792Y0112496D01*
X0422597Y0111285D01*
X0422372Y0110078D01*
X0422118Y0108878D01*
X0421835Y0107684D01*
X0421522Y0106497D01*
X0421180Y0105319D01*
X0420809Y0104149D01*
X0420410Y0102989D01*
X0419983Y0101838D01*
X0419527Y0100699D01*
X0419043Y0099571D01*
X0418532Y0098455D01*
X0417994Y0097352D01*
X0417429Y0096263D01*
X0416837Y0095188D01*
X0416219Y0094128D01*
X0415576Y0093083D01*
X0414906Y0092054D01*
X0414212Y0091043D01*
X0413493Y0090048D01*
X0412750Y0089071D01*
X0411984Y0088113D01*
X0411193Y0087174D01*
X0410381Y0086255D01*
X0409545Y0085356D01*
X0408688Y0084478D01*
X0407810Y0083621D01*
X0406911Y0082785D01*
X0405992Y0081973D01*
X0405053Y0081182D01*
X0404095Y0080416D01*
X0403118Y0079673D01*
X0402123Y0078954D01*
X0401112Y0078260D01*
X0400083Y0077590D01*
X0399038Y0076947D01*
X0397978Y0076329D01*
X0396903Y0075737D01*
X0395814Y0075172D01*
X0394711Y0074634D01*
X0393595Y0074123D01*
X0392467Y0073639D01*
X0391328Y0073183D01*
X0390177Y0072756D01*
X0389017Y0072357D01*
X0387847Y0071986D01*
X0386669Y0071644D01*
X0385482Y0071331D01*
X0384288Y0071048D01*
X0383088Y0070794D01*
X0381881Y0070569D01*
X0380670Y0070374D01*
X0379454Y0070209D01*
X0378234Y0070074D01*
X0377011Y0069968D01*
X0375786Y0069893D01*
X0374560Y0069848D01*
X0373333Y0069833D01*
X0372106Y0069848D01*
X0370880Y0069893D01*
X0369655Y0069968D01*
X0368432Y0070074D01*
X0367212Y0070209D01*
X0365996Y0070374D01*
X0364785Y0070569D01*
X0363578Y0070794D01*
X0362378Y0071048D01*
X0361184Y0071331D01*
X0359997Y0071644D01*
X0358819Y0071986D01*
X0357649Y0072357D01*
X0356489Y0072756D01*
X0355338Y0073183D01*
X0354199Y0073639D01*
X0353071Y0074123D01*
X0351955Y0074634D01*
X0350852Y0075172D01*
X0349763Y0075737D01*
X0348688Y0076329D01*
X0347628Y0076947D01*
X0346583Y0077590D01*
X0345554Y0078260D01*
X0344543Y0078954D01*
X0343548Y0079673D01*
X0342571Y0080416D01*
X0341613Y0081182D01*
X0340674Y0081973D01*
X0339755Y0082785D01*
X0338856Y0083621D01*
X0337978Y0084478D01*
X0337121Y0085356D01*
X0336285Y0086255D01*
X0335473Y0087174D01*
X0334682Y0088113D01*
X0333916Y0089071D01*
X0333173Y0090048D01*
X0332454Y0091043D01*
X0331760Y0092054D01*
X0331090Y0093083D01*
X0330447Y0094128D01*
X0329829Y0095188D01*
X0329237Y0096263D01*
X0328672Y0097352D01*
X0328134Y0098455D01*
X0327623Y0099571D01*
X0327139Y0100699D01*
X0326683Y0101838D01*
X0326256Y0102989D01*
X0325857Y0104149D01*
X0325486Y0105319D01*
X0325144Y0106497D01*
X0324831Y0107684D01*
X0324548Y0108878D01*
X0324294Y0110078D01*
X0324069Y0111285D01*
X0323874Y0112496D01*
X0323709Y0113712D01*
X0323574Y0114932D01*
X0323468Y0116155D01*
X0323393Y0117380D01*
X0323348Y0118606D01*
X0323333Y0119833D01*
M02*
